<mxfile host="app.diagrams.net" agent="Mozilla/5.0 (Windows NT 10.0; Win64; x64) AppleWebKit/537.36 (KHTML, like Gecko) Chrome/128.0.0.0 Safari/537.36" version="24.7.16">
  <diagram name="PÃ¡gina-1" id="SszB_yExM7Fhaj5NHEYN">
    <mxGraphModel dx="2620" dy="2144" grid="1" gridSize="10" guides="1" tooltips="1" connect="1" arrows="1" fold="1" page="1" pageScale="1" pageWidth="827" pageHeight="1169" math="0" shadow="0">
      <root>
        <mxCell id="0" />
        <mxCell id="1" parent="0" />
        <mxCell id="JIAnvfFKaqHOImahFsZr-3" value="" style="rounded=1;whiteSpace=wrap;html=1;" vertex="1" parent="1">
          <mxGeometry x="50" y="680" width="190" height="215" as="geometry" />
        </mxCell>
        <mxCell id="JIAnvfFKaqHOImahFsZr-4" value="Persona&lt;div&gt;&lt;br&gt;&lt;/div&gt;&lt;div&gt;id&lt;/div&gt;&lt;div&gt;fechaNacimiento&lt;/div&gt;&lt;div&gt;olimpico?&lt;/div&gt;&lt;div&gt;&lt;br&gt;&lt;/div&gt;&lt;div&gt;nadar()&lt;/div&gt;&lt;div&gt;caminar()&lt;/div&gt;&lt;div&gt;&lt;br&gt;&lt;/div&gt;" style="text;html=1;align=center;verticalAlign=middle;whiteSpace=wrap;rounded=0;" vertex="1" parent="1">
          <mxGeometry x="70" y="695" width="150" height="175" as="geometry" />
        </mxCell>
        <mxCell id="JIAnvfFKaqHOImahFsZr-5" value="" style="rounded=1;whiteSpace=wrap;html=1;" vertex="1" parent="1">
          <mxGeometry x="40" y="400" width="210" height="230" as="geometry" />
        </mxCell>
        <mxCell id="JIAnvfFKaqHOImahFsZr-6" value="Curso&lt;div&gt;&lt;br&gt;&lt;/div&gt;&lt;div&gt;id&lt;/div&gt;&lt;div&gt;categoria&lt;/div&gt;&lt;div&gt;numeroMatriculados&lt;/div&gt;&lt;div&gt;horario&lt;/div&gt;&lt;div&gt;valor&lt;/div&gt;&lt;div&gt;persona: Persona&lt;/div&gt;&lt;div&gt;&lt;br&gt;&lt;/div&gt;&lt;div&gt;obtenerAlumnos()&lt;/div&gt;&lt;div&gt;obtenerCondicionesEspeciales()&lt;/div&gt;&lt;div&gt;&lt;br&gt;&lt;/div&gt;" style="text;html=1;align=center;verticalAlign=middle;whiteSpace=wrap;rounded=0;" vertex="1" parent="1">
          <mxGeometry x="60" y="415" width="170" height="195" as="geometry" />
        </mxCell>
        <mxCell id="JIAnvfFKaqHOImahFsZr-8" value="" style="endArrow=classic;html=1;rounded=0;exitX=0.5;exitY=1;exitDx=0;exitDy=0;entryX=0.5;entryY=0;entryDx=0;entryDy=0;" edge="1" parent="1" source="JIAnvfFKaqHOImahFsZr-5" target="JIAnvfFKaqHOImahFsZr-3">
          <mxGeometry width="50" height="50" relative="1" as="geometry">
            <mxPoint x="295" y="700" as="sourcePoint" />
            <mxPoint x="230" y="845" as="targetPoint" />
          </mxGeometry>
        </mxCell>
        <mxCell id="JIAnvfFKaqHOImahFsZr-9" value="" style="rounded=1;whiteSpace=wrap;html=1;" vertex="1" parent="1">
          <mxGeometry x="50" y="930" width="190" height="200" as="geometry" />
        </mxCell>
        <mxCell id="JIAnvfFKaqHOImahFsZr-10" value="PersonaDiscapacitada&lt;div&gt;&lt;br&gt;&lt;/div&gt;&lt;div&gt;condicionEspecial&lt;/div&gt;&lt;div&gt;consideraciones&lt;/div&gt;&lt;div&gt;&lt;br&gt;&lt;/div&gt;&lt;div&gt;nadarASuRitmo()&lt;/div&gt;&lt;div&gt;caminarASuritmo()&lt;/div&gt;&lt;div&gt;obtenerConsideraciones()&lt;/div&gt;&lt;div&gt;&lt;br&gt;&lt;/div&gt;" style="text;html=1;align=center;verticalAlign=middle;whiteSpace=wrap;rounded=0;" vertex="1" parent="1">
          <mxGeometry x="70" y="942.5" width="150" height="175" as="geometry" />
        </mxCell>
        <mxCell id="JIAnvfFKaqHOImahFsZr-11" value="" style="endArrow=classic;html=1;rounded=0;exitX=0.5;exitY=1;exitDx=0;exitDy=0;entryX=0.5;entryY=0;entryDx=0;entryDy=0;" edge="1" parent="1" source="JIAnvfFKaqHOImahFsZr-3" target="JIAnvfFKaqHOImahFsZr-9">
          <mxGeometry width="50" height="50" relative="1" as="geometry">
            <mxPoint x="-250" y="955" as="sourcePoint" />
            <mxPoint x="-142" y="985" as="targetPoint" />
          </mxGeometry>
        </mxCell>
        <mxCell id="JIAnvfFKaqHOImahFsZr-15" value="" style="shape=parallelogram;perimeter=parallelogramPerimeter;whiteSpace=wrap;html=1;fixedSize=1;" vertex="1" parent="1">
          <mxGeometry x="610" y="210" width="190" height="155" as="geometry" />
        </mxCell>
        <mxCell id="JIAnvfFKaqHOImahFsZr-16" value="Curso Interfaz&lt;div&gt;&lt;br&gt;&lt;/div&gt;&lt;div&gt;id&lt;/div&gt;&lt;div&gt;categoria&lt;/div&gt;&lt;div&gt;numeroMatriculados&lt;/div&gt;&lt;div&gt;horario&lt;/div&gt;&lt;div&gt;valor&lt;/div&gt;&lt;div&gt;persona: Persona&lt;/div&gt;" style="text;html=1;align=center;verticalAlign=middle;whiteSpace=wrap;rounded=0;" vertex="1" parent="1">
          <mxGeometry x="640" y="220" width="130" height="130" as="geometry" />
        </mxCell>
        <mxCell id="JIAnvfFKaqHOImahFsZr-20" value="" style="shape=parallelogram;perimeter=parallelogramPerimeter;whiteSpace=wrap;html=1;fixedSize=1;" vertex="1" parent="1">
          <mxGeometry x="490" y="695" width="190" height="155" as="geometry" />
        </mxCell>
        <mxCell id="JIAnvfFKaqHOImahFsZr-21" value="Persona Interfaz&lt;div&gt;&lt;br&gt;&lt;/div&gt;&lt;div&gt;id&lt;/div&gt;&lt;div&gt;fechaNacimiento&lt;/div&gt;&lt;div&gt;olimpico?&lt;/div&gt;&lt;div&gt;condicionEspecial?&lt;/div&gt;&lt;div&gt;consideraciones?&lt;/div&gt;&lt;div&gt;&lt;br&gt;&lt;/div&gt;&lt;div&gt;nadar()&lt;/div&gt;" style="text;html=1;align=center;verticalAlign=middle;whiteSpace=wrap;rounded=0;" vertex="1" parent="1">
          <mxGeometry x="520" y="705" width="130" height="130" as="geometry" />
        </mxCell>
        <mxCell id="JIAnvfFKaqHOImahFsZr-22" style="edgeStyle=orthogonalEdgeStyle;rounded=0;orthogonalLoop=1;jettySize=auto;html=1;entryX=1.011;entryY=0.447;entryDx=0;entryDy=0;entryPerimeter=0;" edge="1" parent="1" source="JIAnvfFKaqHOImahFsZr-20" target="JIAnvfFKaqHOImahFsZr-3">
          <mxGeometry relative="1" as="geometry" />
        </mxCell>
        <mxCell id="JIAnvfFKaqHOImahFsZr-23" style="edgeStyle=orthogonalEdgeStyle;rounded=0;orthogonalLoop=1;jettySize=auto;html=1;entryX=1;entryY=0.56;entryDx=0;entryDy=0;entryPerimeter=0;" edge="1" parent="1" source="JIAnvfFKaqHOImahFsZr-20" target="JIAnvfFKaqHOImahFsZr-9">
          <mxGeometry relative="1" as="geometry" />
        </mxCell>
        <mxCell id="JIAnvfFKaqHOImahFsZr-24" style="edgeStyle=orthogonalEdgeStyle;rounded=0;orthogonalLoop=1;jettySize=auto;html=1;entryX=0.995;entryY=0.539;entryDx=0;entryDy=0;entryPerimeter=0;" edge="1" parent="1" source="JIAnvfFKaqHOImahFsZr-21" target="JIAnvfFKaqHOImahFsZr-5">
          <mxGeometry relative="1" as="geometry" />
        </mxCell>
        <mxCell id="JIAnvfFKaqHOImahFsZr-65" value="Classname" style="swimlane;fontStyle=1;align=center;verticalAlign=top;childLayout=stackLayout;horizontal=1;startSize=26;horizontalStack=0;resizeParent=1;resizeParentMax=0;resizeLast=0;collapsible=1;marginBottom=0;whiteSpace=wrap;html=1;" vertex="1" parent="1">
          <mxGeometry x="-740" y="-360" width="160" height="86" as="geometry" />
        </mxCell>
        <mxCell id="JIAnvfFKaqHOImahFsZr-66" value="+ field: type" style="text;strokeColor=none;fillColor=none;align=left;verticalAlign=top;spacingLeft=4;spacingRight=4;overflow=hidden;rotatable=0;points=[[0,0.5],[1,0.5]];portConstraint=eastwest;whiteSpace=wrap;html=1;" vertex="1" parent="JIAnvfFKaqHOImahFsZr-65">
          <mxGeometry y="26" width="160" height="26" as="geometry" />
        </mxCell>
        <mxCell id="JIAnvfFKaqHOImahFsZr-67" value="" style="line;strokeWidth=1;fillColor=none;align=left;verticalAlign=middle;spacingTop=-1;spacingLeft=3;spacingRight=3;rotatable=0;labelPosition=right;points=[];portConstraint=eastwest;strokeColor=inherit;" vertex="1" parent="JIAnvfFKaqHOImahFsZr-65">
          <mxGeometry y="52" width="160" height="8" as="geometry" />
        </mxCell>
        <mxCell id="JIAnvfFKaqHOImahFsZr-68" value="+ method(type): type" style="text;strokeColor=none;fillColor=none;align=left;verticalAlign=top;spacingLeft=4;spacingRight=4;overflow=hidden;rotatable=0;points=[[0,0.5],[1,0.5]];portConstraint=eastwest;whiteSpace=wrap;html=1;" vertex="1" parent="JIAnvfFKaqHOImahFsZr-65">
          <mxGeometry y="60" width="160" height="26" as="geometry" />
        </mxCell>
        <mxCell id="JIAnvfFKaqHOImahFsZr-69" value="Sede" style="swimlane;fontStyle=1;align=center;verticalAlign=top;childLayout=stackLayout;horizontal=1;startSize=26;horizontalStack=0;resizeParent=1;resizeParentMax=0;resizeLast=0;collapsible=1;marginBottom=0;whiteSpace=wrap;html=1;" vertex="1" parent="1">
          <mxGeometry x="-90" y="-190" width="210" height="180" as="geometry" />
        </mxCell>
        <mxCell id="JIAnvfFKaqHOImahFsZr-70" value="+ nombre: string&lt;div&gt;+ pais: string&lt;/div&gt;&lt;div&gt;+ ciudad: string&lt;/div&gt;&lt;div&gt;+ numeroContacto: number&lt;/div&gt;&lt;div&gt;+ reglas: ListaReglas&lt;/div&gt;" style="text;strokeColor=none;fillColor=none;align=left;verticalAlign=top;spacingLeft=4;spacingRight=4;overflow=hidden;rotatable=0;points=[[0,0.5],[1,0.5]];portConstraint=eastwest;whiteSpace=wrap;html=1;" vertex="1" parent="JIAnvfFKaqHOImahFsZr-69">
          <mxGeometry y="26" width="210" height="84" as="geometry" />
        </mxCell>
        <mxCell id="JIAnvfFKaqHOImahFsZr-71" value="" style="line;strokeWidth=1;fillColor=none;align=left;verticalAlign=middle;spacingTop=-1;spacingLeft=3;spacingRight=3;rotatable=0;labelPosition=right;points=[];portConstraint=eastwest;strokeColor=inherit;" vertex="1" parent="JIAnvfFKaqHOImahFsZr-69">
          <mxGeometry y="110" width="210" height="8" as="geometry" />
        </mxCell>
        <mxCell id="JIAnvfFKaqHOImahFsZr-72" value="+ abrir(): void&amp;nbsp;&lt;div&gt;+ cerrar(): void&lt;br&gt;&lt;/div&gt;&lt;div&gt;+ validarRegla(id: Regla): Boolean&amp;nbsp;&lt;br&gt;&lt;/div&gt;" style="text;strokeColor=none;fillColor=none;align=left;verticalAlign=top;spacingLeft=4;spacingRight=4;overflow=hidden;rotatable=0;points=[[0,0.5],[1,0.5]];portConstraint=eastwest;whiteSpace=wrap;html=1;" vertex="1" parent="JIAnvfFKaqHOImahFsZr-69">
          <mxGeometry y="118" width="210" height="62" as="geometry" />
        </mxCell>
        <mxCell id="JIAnvfFKaqHOImahFsZr-73" value="&lt;span style=&quot;font-weight: 400;&quot;&gt;ListaReglas&lt;/span&gt;" style="swimlane;fontStyle=1;align=center;verticalAlign=top;childLayout=stackLayout;horizontal=1;startSize=26;horizontalStack=0;resizeParent=1;resizeParentMax=0;resizeLast=0;collapsible=1;marginBottom=0;whiteSpace=wrap;html=1;" vertex="1" parent="1">
          <mxGeometry x="-400" y="-160" width="210" height="120" as="geometry" />
        </mxCell>
        <mxCell id="JIAnvfFKaqHOImahFsZr-74" value="+ id: string&lt;div&gt;+ lista: lista&amp;lt;Regla&amp;gt;&lt;/div&gt;" style="text;strokeColor=none;fillColor=none;align=left;verticalAlign=top;spacingLeft=4;spacingRight=4;overflow=hidden;rotatable=0;points=[[0,0.5],[1,0.5]];portConstraint=eastwest;whiteSpace=wrap;html=1;" vertex="1" parent="JIAnvfFKaqHOImahFsZr-73">
          <mxGeometry y="26" width="210" height="44" as="geometry" />
        </mxCell>
        <mxCell id="JIAnvfFKaqHOImahFsZr-75" value="" style="line;strokeWidth=1;fillColor=none;align=left;verticalAlign=middle;spacingTop=-1;spacingLeft=3;spacingRight=3;rotatable=0;labelPosition=right;points=[];portConstraint=eastwest;strokeColor=inherit;" vertex="1" parent="JIAnvfFKaqHOImahFsZr-73">
          <mxGeometry y="70" width="210" height="8" as="geometry" />
        </mxCell>
        <mxCell id="JIAnvfFKaqHOImahFsZr-76" value="+ otenerReglas(): []Regla&amp;nbsp;&lt;div&gt;+ obtenerRegla(id: string): Regla&lt;br&gt;&lt;/div&gt;" style="text;strokeColor=none;fillColor=none;align=left;verticalAlign=top;spacingLeft=4;spacingRight=4;overflow=hidden;rotatable=0;points=[[0,0.5],[1,0.5]];portConstraint=eastwest;whiteSpace=wrap;html=1;" vertex="1" parent="JIAnvfFKaqHOImahFsZr-73">
          <mxGeometry y="78" width="210" height="42" as="geometry" />
        </mxCell>
        <mxCell id="JIAnvfFKaqHOImahFsZr-78" value="&lt;span style=&quot;font-weight: 400;&quot;&gt;Regla&lt;/span&gt;" style="swimlane;fontStyle=1;align=center;verticalAlign=top;childLayout=stackLayout;horizontal=1;startSize=26;horizontalStack=0;resizeParent=1;resizeParentMax=0;resizeLast=0;collapsible=1;marginBottom=0;whiteSpace=wrap;html=1;" vertex="1" parent="1">
          <mxGeometry x="-400" y="60" width="210" height="128" as="geometry" />
        </mxCell>
        <mxCell id="JIAnvfFKaqHOImahFsZr-79" value="+ id: string&lt;div&gt;+ condicion: string&lt;/div&gt;&lt;div&gt;+ descripcion: string&lt;/div&gt;&lt;div&gt;+ razon: string&lt;/div&gt;&lt;div&gt;+ adjunto: Blob&lt;/div&gt;" style="text;strokeColor=none;fillColor=none;align=left;verticalAlign=top;spacingLeft=4;spacingRight=4;overflow=hidden;rotatable=0;points=[[0,0.5],[1,0.5]];portConstraint=eastwest;whiteSpace=wrap;html=1;" vertex="1" parent="JIAnvfFKaqHOImahFsZr-78">
          <mxGeometry y="26" width="210" height="94" as="geometry" />
        </mxCell>
        <mxCell id="JIAnvfFKaqHOImahFsZr-80" value="" style="line;strokeWidth=1;fillColor=none;align=left;verticalAlign=middle;spacingTop=-1;spacingLeft=3;spacingRight=3;rotatable=0;labelPosition=right;points=[];portConstraint=eastwest;strokeColor=inherit;" vertex="1" parent="JIAnvfFKaqHOImahFsZr-78">
          <mxGeometry y="120" width="210" height="8" as="geometry" />
        </mxCell>
        <mxCell id="JIAnvfFKaqHOImahFsZr-82" value="AdminEscuela" style="swimlane;fontStyle=1;align=center;verticalAlign=top;childLayout=stackLayout;horizontal=1;startSize=26;horizontalStack=0;resizeParent=1;resizeParentMax=0;resizeLast=0;collapsible=1;marginBottom=0;whiteSpace=wrap;html=1;" vertex="1" parent="1">
          <mxGeometry x="380" y="-120" width="280" height="150" as="geometry" />
        </mxCell>
        <mxCell id="JIAnvfFKaqHOImahFsZr-83" value="+ nit: string" style="text;strokeColor=none;fillColor=none;align=left;verticalAlign=top;spacingLeft=4;spacingRight=4;overflow=hidden;rotatable=0;points=[[0,0.5],[1,0.5]];portConstraint=eastwest;whiteSpace=wrap;html=1;" vertex="1" parent="JIAnvfFKaqHOImahFsZr-82">
          <mxGeometry y="26" width="280" height="34" as="geometry" />
        </mxCell>
        <mxCell id="JIAnvfFKaqHOImahFsZr-84" value="" style="line;strokeWidth=1;fillColor=none;align=left;verticalAlign=middle;spacingTop=-1;spacingLeft=3;spacingRight=3;rotatable=0;labelPosition=right;points=[];portConstraint=eastwest;strokeColor=inherit;" vertex="1" parent="JIAnvfFKaqHOImahFsZr-82">
          <mxGeometry y="60" width="280" height="8" as="geometry" />
        </mxCell>
        <mxCell id="JIAnvfFKaqHOImahFsZr-85" value="&lt;div&gt;+ matricular(persona: Persona): Boolean&lt;/div&gt;&lt;div&gt;+ eliminar(persona: Persona): Boolean&lt;/div&gt;&lt;div&gt;+ consideraciones(persona: Persona): Boolean&lt;/div&gt;&lt;div&gt;+ obtenerCursos(): lista&amp;lt;Cursos&amp;gt;&lt;/div&gt;" style="text;strokeColor=none;fillColor=none;align=left;verticalAlign=top;spacingLeft=4;spacingRight=4;overflow=hidden;rotatable=0;points=[[0,0.5],[1,0.5]];portConstraint=eastwest;whiteSpace=wrap;html=1;" vertex="1" parent="JIAnvfFKaqHOImahFsZr-82">
          <mxGeometry y="68" width="280" height="82" as="geometry" />
        </mxCell>
        <mxCell id="JIAnvfFKaqHOImahFsZr-90" value="curso" style="swimlane;fontStyle=1;align=center;verticalAlign=top;childLayout=stackLayout;horizontal=1;startSize=26;horizontalStack=0;resizeParent=1;resizeParentMax=0;resizeLast=0;collapsible=1;marginBottom=0;whiteSpace=wrap;html=1;" vertex="1" parent="1">
          <mxGeometry x="-370" y="430" width="280" height="210" as="geometry" />
        </mxCell>
        <mxCell id="JIAnvfFKaqHOImahFsZr-91" value="+ id: string&lt;div&gt;+ categoria: string&lt;/div&gt;&lt;div&gt;+ cantMatriculados: number&lt;/div&gt;&lt;div&gt;+ horario: string&lt;/div&gt;&lt;div&gt;+ valor: number&lt;/div&gt;" style="text;strokeColor=none;fillColor=none;align=left;verticalAlign=top;spacingLeft=4;spacingRight=4;overflow=hidden;rotatable=0;points=[[0,0.5],[1,0.5]];portConstraint=eastwest;whiteSpace=wrap;html=1;" vertex="1" parent="JIAnvfFKaqHOImahFsZr-90">
          <mxGeometry y="26" width="280" height="94" as="geometry" />
        </mxCell>
        <mxCell id="JIAnvfFKaqHOImahFsZr-92" value="" style="line;strokeWidth=1;fillColor=none;align=left;verticalAlign=middle;spacingTop=-1;spacingLeft=3;spacingRight=3;rotatable=0;labelPosition=right;points=[];portConstraint=eastwest;strokeColor=inherit;" vertex="1" parent="JIAnvfFKaqHOImahFsZr-90">
          <mxGeometry y="120" width="280" height="8" as="geometry" />
        </mxCell>
        <mxCell id="JIAnvfFKaqHOImahFsZr-93" value="&lt;div&gt;+ matricular(persona: Persona): Boolean&lt;/div&gt;&lt;div&gt;+ eliminar(persona: Persona): Boolean&lt;/div&gt;&lt;div&gt;+ consideraciones(persona: Persona): Boolean&lt;/div&gt;&lt;div&gt;+ obtenerCursos(): lista&amp;lt;Cursos&amp;gt;&lt;/div&gt;" style="text;strokeColor=none;fillColor=none;align=left;verticalAlign=top;spacingLeft=4;spacingRight=4;overflow=hidden;rotatable=0;points=[[0,0.5],[1,0.5]];portConstraint=eastwest;whiteSpace=wrap;html=1;" vertex="1" parent="JIAnvfFKaqHOImahFsZr-90">
          <mxGeometry y="128" width="280" height="82" as="geometry" />
        </mxCell>
      </root>
    </mxGraphModel>
  </diagram>
</mxfile>
